<svg width="1024" height="1024" viewBox="0 0 1024 1024" fill="none" xmlns="http://www.w3.org/2000/svg">
<path d="M413.557 704.505C391.93 691.557 374.654 674.333 358.979 655.32C337.417 629.164 319.313 600.547 300.11 572.712C292.43 561.579 284.424 550.728 274.014 541.912C269.912 538.438 265.433 535.575 260.307 533.856C254.137 531.787 251.801 533.075 251.426 539.552C250.849 549.525 250.404 559.532 250.555 569.515C250.773 583.999 251.497 598.478 252.14 612.953C252.998 632.254 253.992 651.549 254.915 670.846C255.195 676.702 254.808 682.524 253.285 688.188C251.328 695.462 246.669 700.6 239.567 702.925C227.795 706.779 215.692 707.413 203.577 704.767C189.034 701.591 182.59 690.962 179.861 677.526C175.908 658.071 174.781 638.305 173.54 618.526C172.338 599.365 172.572 580.214 172.751 561.064C173.014 532.92 175.351 504.912 178.416 476.917C183.564 429.888 193.935 384.089 208.743 339.235C212.133 328.968 215.028 318.499 219.912 308.787C225.874 296.931 235.771 291.249 248.858 290.769C257.074 290.468 265.166 291.261 273.051 293.68C289.626 298.764 295.904 309.393 292.735 326.492C288.836 347.529 281.478 367.571 275.136 387.894C268.034 410.65 262.137 433.687 257.493 457.054C257.081 459.124 256.438 461.289 257.451 463.499C259.736 463.772 260.549 461.8 261.706 460.587C310.274 409.703 360.422 360.409 411.465 312.024C420.524 303.436 429.764 294.979 440.232 288.044C450.367 281.329 461.164 278.704 472.967 283.017C486.555 287.984 493.191 301.438 488.956 315.294C485.803 325.607 479.58 333.984 472.19 341.592C454.291 360.018 434.913 376.843 415.671 393.82C377.565 427.439 338.741 460.221 300.057 493.167C298.938 494.12 297.563 494.911 297.597 496.682C298.195 498.127 299.446 498.466 300.81 498.681C315.726 501.034 327.806 508.791 338.587 518.828C358.028 536.926 372.518 558.985 387.539 580.599C404.368 604.815 420.688 629.399 441.203 650.81C466.139 676.837 495.604 694.859 531.576 700.248C564.625 705.199 596.717 701.033 626.995 686.191C638.818 680.396 651.831 677.422 663.201 670.598C667.27 668.156 671.418 665.842 676.247 663.056C670.904 674.096 629.671 706.088 598.458 719.036C568.408 731.503 537.462 737.802 504.839 734.394C472.377 731.004 442.127 720.928 413.557 704.505Z" fill="black"/>
<path d="M490.639 444.623C514.244 423.769 540.974 409.512 571.614 403.795C616.395 395.439 655.939 407.991 690.947 436.192C702.851 445.781 712.986 456.998 719.795 470.894C721.339 474.045 722.751 477.276 723.034 480.814C723.471 486.284 720.196 488.692 715.192 486.481C710.259 484.302 706.242 480.743 702.252 477.197C685.393 462.216 668.057 447.928 646.89 439.238C642.928 437.612 639 435.814 634.211 435.943C646.029 445.768 658.705 454.728 666.071 469.048C663.298 469.955 662.11 468.166 660.696 467.255C643.118 455.934 624.111 448.528 603.049 448.432C563.845 448.254 534.217 466.138 512.767 498.299C501.88 514.622 496.287 532.94 495.55 552.375C494.906 569.37 499.325 585.361 509.42 599.44C511.554 602.416 513.886 605.291 515.66 608.474C517.991 612.656 515.622 616.185 510.811 616.093C509.829 616.074 508.828 615.83 507.877 615.549C474.559 605.712 450.737 582.899 447.661 546.57C444.632 510.806 457.574 480.722 480.858 454.425C483.834 451.064 487.196 448.044 490.639 444.623Z" fill="black"/>
<path d="M846.066 605C845.894 625.828 846.705 646.096 849.021 666.317C849.773 672.885 849.969 679.596 848.294 686.193C846.454 693.438 842.051 698.278 835.034 700.552C825.334 703.697 815.476 704.163 805.484 701.8C795.095 699.342 789.217 692.589 786.741 682.533C784.332 672.748 784.274 662.69 784.096 652.74C783.345 610.579 785.133 568.497 788.508 526.462C789.627 512.526 790.199 498.527 792.817 484.788C797.084 462.395 816.891 452.213 836.924 461.643C848.563 467.122 850.623 477.7 851.2 488.765C851.982 503.77 850.272 518.727 849.044 533.652C847.105 557.239 846.053 580.842 846.066 605Z" fill="black"/>
<path d="M670.183 526.164C674.548 521.973 679.217 518.76 684.081 515.863C689.802 512.456 695.125 514.007 698.488 519.741C700.732 523.567 701.867 527.847 702.099 532.102C702.515 539.713 704.397 546.962 707.175 553.869C710.666 562.55 708.78 570.54 705.565 578.542C700.948 590.034 694.177 600.384 687.534 610.727C682.912 617.924 674.451 617.117 670.068 609.683C669.223 608.25 668.458 606.768 667.581 605.355C663.81 599.281 660.163 597.919 653.241 599.955C646.239 602.013 643.983 600.404 643.881 593.18C643.821 588.887 643.87 584.592 643.87 580.392C641.255 579.456 640.079 581.289 638.675 582.206C634.192 585.132 629.9 585.166 625.856 581.586C622.435 578.557 618.661 576.183 614.316 574.815C610.739 573.688 610.522 571.901 612.461 568.921C618.391 559.803 630.839 555.189 641.241 558.452C648.034 560.583 647.949 560.545 650.987 553.698C655.553 543.405 661.552 534.074 670.183 526.164Z" fill="#E5522C"/>
<path d="M821.333 427.03C805.37 424.834 794.465 416.86 790.642 401.317C787.361 387.976 790.783 375.904 801.585 367.14C812.507 358.279 824.971 356.309 838.059 362.528C850.719 368.544 857.162 378.789 857.268 392.706C857.421 412.591 841.873 427.475 821.333 427.03Z" fill="#E5522C"/>
<path d="M488.653 635.295C486.931 632.893 485.42 630.777 483.895 628.641C486.079 626.781 487.776 628.209 489.296 628.786C508.84 636.205 529.112 640.356 549.784 643.113C558.973 644.339 568.087 646.581 576.373 651.16C579.764 653.035 582.78 655.373 584.989 658.597C587.775 662.662 586.957 664.585 582.125 665.228C578.669 665.687 575.19 665.977 571.716 666.28C569.334 666.488 566.683 666.699 565.958 669.31C565.266 671.803 567.695 673.143 569.378 674.306C573.04 676.837 576.916 679.059 580.908 681.533C578.969 685.877 575.185 686.01 571.673 686.302C561.187 687.172 551.677 683.532 542.37 679.416C520.512 669.75 503.505 654.094 488.653 635.295Z" fill="#E5522C"/>
<path d="M634.705 630.703C636.671 626.641 638.821 623.018 640.133 619.112C641.282 615.689 643.446 614.267 646.656 614.023C649.872 613.778 652.338 615.55 653.304 618.342C655.229 623.91 658.351 626.951 664.62 627.645C669.461 628.182 670.688 633.035 668.123 637.911C656.756 659.515 629.794 673.778 605.015 671.28C601.902 670.966 598.842 670.142 598.032 666.7C597.131 662.871 599.459 660.331 602.625 658.733C608.879 655.576 614.927 652.102 620.321 647.619C625.99 642.907 630.692 637.324 634.705 630.703Z" fill="#E5522C"/>
<path d="M744.652 565.605C744.879 555.878 744.951 546.617 743.274 536.263C759.749 553.588 734.89 646.299 710.375 662.007C709.081 655.095 710.008 646.795 698.786 645.307C704.709 641.275 703.536 636.582 702.622 632.155C700.784 623.253 715.281 603.743 722.977 600.721C725.89 599.577 727.743 599.955 728.92 602.964C729.444 604.305 729.583 605.935 731.69 606.937C739.026 594.243 742.669 580.434 744.652 565.605Z" fill="black"/>
<path d="M710.375 662.007C710.375 662.007 720.5 656 726.5 640C732.5 624 732.677 610.009 731.5 607C728.5 599.327 725.89 599.577 722.977 600.721C715.281 603.743 700.784 623.253 702.622 632.155C703.5 644.5 707.14 649.553 707.14 649.553C709.624 652.948 709.577 657.742 710.375 662.007Z" fill="#E5522C"/>
<path d="M733.192 556.338C727.952 556.891 725.3 554.894 724.132 549.916C723.105 545.543 725.393 540.191 729.054 539.028C732.687 537.874 735.574 539.045 737.299 542.588C739.543 547.197 738.125 552.323 733.192 556.338Z" fill="black"/>
</svg>
